<svg height="400" width="400" xmlns="http://www.w3.org/2000/svg">
<style>

 	 	 text { 
 	 	 	 fill: blue; 
 	 	 	 font-family: monospace; 
 	 	 	 }

 	 	 line { 
 	 	 	 stroke: black; 
 	 	 	 stroke-width: 1; 
 	 	 	 }

 	 	 circle { 
 	 	 	 r: 2.5; 
 	 	 	 fill: black; 
 	 	 	 }
</style>
<text x="205" y="10" >A</text> 
<text x="205" y="25" >C</text> 
<text x="205" y="40" >C</text> 
<text x="205" y="55" >A</text> 
<text x="205" y="70" >C</text> 
<text x="205" y="85" >T</text> 
<text x="205" y="100" >C</text> 
<text x="205" y="115" >T</text> 
<text x="205" y="130" >T</text> 
<text x="205" y="145" >T</text> 
<text x="205" y="160" >C</text> 
<text x="218" y="170" >G</text> 
<text x="231" y="170" >G</text> 
<text x="244" y="170" >T</text> 
<text x="257" y="170" >A</text> 
<text x="270" y="170" >C</text> 
<text x="282" y="163" >A</text> 
<text x="294" y="160" >A</text> 
<text x="306" y="163" >C</text> 
<text x="315" y="174" >A</text> 
<text x="315" y="189" >A</text> 
<text x="306" y="200" >T</text> 
<text x="294" y="203" >C</text> 
<text x="282" y="200" >T</text> 
<text x="270" y="193" >G</text> 
<text x="257" y="193" >T</text> 
<text x="244" y="193" >A</text> 
<text x="231" y="193" >C</text> 
<text x="218" y="193" >C</text> 
<text x="217" y="204" >C</text> 
<text x="215" y="216" >C</text> 
<text x="206" y="221" >C</text> 
<text x="200" y="233" >G</text> 
<text x="200" y="248" >T</text> 
<text x="200" y="263" >A</text> 
<text x="200" y="278" >C</text> 
<text x="200" y="293" >T</text> 
<text x="200" y="308" >C</text> 
<text x="208" y="318" >A</text> 
<text x="208" y="333" >A</text> 
<text x="200" y="344" >T</text> 
<text x="187.5" y="346" >C</text> 
<text x="175" y="344" >G</text> 
<text x="167" y="333" >T</text> 
<text x="167" y="318" >C</text> 
<text x="175" y="308" >A</text> 
<text x="175" y="293" >A</text> 
<text x="175" y="278" >G</text> 
<text x="175" y="263" >A</text> 
<text x="175" y="248" >A</text> 
<text x="175" y="233" >C</text> 
<text x="168" y="221" >A</text> 
<text x="160" y="205" >C</text> 
<text x="163" y="188" >T</text> 
<text x="171" y="173" >C</text> 
<text x="180" y="160" >G</text> 
<text x="180" y="145" >A</text> 
<text x="180" y="130" >A</text> 
<text x="180" y="115" >A</text> 
<text x="180" y="100" >G</text> 
<text x="180" y="85" >A</text> 
<text x="180" y="70" >G</text> 
<line x1="190" y1="67" x2="203" y2="67" />
<line x1="190" y1="82" x2="203" y2="82" />
<line x1="190" y1="97" x2="203" y2="97" />
<line x1="190" y1="112" x2="203" y2="112" />
<line x1="190" y1="127" x2="203" y2="127" />
<line x1="190" y1="142" x2="203" y2="142" />
<line x1="190" y1="157" x2="203" y2="157" />
<line x1="222" y1="173" x2="222" y2="183" />
<line x1="235" y1="173" x2="235" y2="183" />
<line x1="248" y1="173" x2="248" y2="183" />
<line x1="261" y1="173" x2="261" y2="183" />
<line x1="274" y1="173" x2="274" y2="183" />
<line x1="180" y1="218" x2="203" y2="218" stroke-dasharray="2" />
<line x1="185" y1="230" x2="198" y2="230" />
<line x1="185" y1="245" x2="198" y2="245" />
<circle cx="192" cy="260" r="2" />
<line x1="185" y1="275" x2="198" y2="275" />
<line x1="185" y1="290" x2="198" y2="290" />
<circle cx="192" cy="305" r="2" />
</svg>
