<svg height="400" width="400" xmlns="http://www.w3.org/2000/svg">
<style>

 	 	 text { 
 	 	 	 fill: blue; 
 	 	 	 font-family: monospace; 
 	 	 	 }

 	 	 line { 
 	 	 	 stroke: black; 
 	 	 	 stroke-width: 1; 
 	 	 	 }

 	 	 circle { 
 	 	 	 r: 2.5; 
 	 	 	 fill: black; 
 	 	 	 }
</style>
<text x="205" y="10" >A</text> 
<text x="205" y="25" >C</text> 
<text x="205" y="40" >C</text> 
<text x="205" y="55" >A</text> 
<text x="205" y="70" >T</text> 
<text x="205" y="85" >C</text> 
<text x="205" y="100" >A</text> 
<text x="205" y="115" >T</text> 
<text x="205" y="130" >G</text> 
<text x="205" y="145" >C</text> 
<text x="205" y="160" >C</text> 
<text x="218" y="170" >C</text> 
<text x="231" y="170" >T</text> 
<text x="244" y="170" >T</text> 
<text x="257" y="170" >C</text> 
<text x="270" y="170" >C</text> 
<text x="283" y="163" >C</text> 
<text x="296" y="163" >A</text> 
<text x="308" y="175" >T</text> 
<text x="308" y="190" >A</text> 
<text x="296" y="200" >T</text> 
<text x="283" y="200" >T</text> 
<text x="270" y="193" >G</text> 
<text x="257" y="193" >G</text> 
<text x="244" y="193" >T</text> 
<text x="231" y="193" >T</text> 
<text x="218" y="193" >G</text> 
<text x="220" y="205" >T</text> 
<text x="226" y="215" >A</text> 
<text x="218" y="225" >A</text> 
<text x="206" y="228" >A</text> 
<text x="200" y="238" >A</text> 
<text x="200" y="253" >G</text> 
<text x="200" y="268" >C</text> 
<text x="200" y="283" >C</text> 
<text x="200" y="298" >C</text> 
<text x="208" y="308" >C</text> 
<text x="208" y="323" >A</text> 
<text x="200" y="334" >T</text> 
<text x="187.5" y="336" >A</text> 
<text x="175" y="334" >C</text> 
<text x="167" y="323" >C</text> 
<text x="167" y="308" >C</text> 
<text x="175" y="298" >G</text> 
<text x="175" y="283" >G</text> 
<text x="175" y="268" >G</text> 
<text x="175" y="253" >C</text> 
<text x="175" y="238" >T</text> 
<text x="163" y="228" >A</text> 
<text x="152" y="215" >T</text> 
<text x="139" y="215" >C</text> 
<text x="126" y="215" >G</text> 
<text x="113" y="215" >A</text> 
<text x="100" y="222" >A</text> 
<text x="87" y="217" >T</text> 
<text x="80" y="203.5" >A</text> 
<text x="87" y="190" >A</text> 
<text x="100" y="185" >A</text> 
<text x="113" y="192" >T</text> 
<text x="126" y="192" >C</text> 
<text x="139" y="192" >G</text> 
<text x="152" y="192" >A</text> 
<text x="163" y="183" >C</text> 
<text x="173" y="173" >T</text> 
<text x="180" y="70" >A</text> 
<text x="180" y="85" >G</text> 
<text x="180" y="100" >T</text> 
<text x="180" y="115" >A</text> 
<text x="180" y="130" >A</text> 
<text x="180" y="145" >G</text> 
<text x="180" y="160" >G</text> 
<line x1="190" y1="67" x2="205" y2="67" />
<line x1="190" y1="82" x2="205" y2="82" />
<line x1="190" y1="97" x2="205" y2="97" />
<line x1="190" y1="112" x2="205" y2="112" />
<circle cx="196" cy="127" r="2" />
<line x1="190" y1="142" x2="205" y2="142" />
<line x1="190" y1="157" x2="205" y2="157" />
<line x1="222" y1="173" x2="222" y2="183" />
<circle cx="235" cy="177" r="2" />
<circle cx="248" cy="177" r="2" />
<line x1="261" y1="173" x2="261" y2="183" />
<line x1="274" y1="173" x2="274" y2="183" />
<line x1="180" y1="223" x2="203" y2="223" stroke-dasharray="2" />
<line x1="185" y1="235" x2="198" y2="235" />
<line x1="185" y1="250" x2="198" y2="250" />
<line x1="185" y1="265" x2="198" y2="265" />
<line x1="185" y1="280" x2="198" y2="280" />
<line x1="185" y1="295" x2="198" y2="295" />
<line x1="117" y1="195" x2="117" y2="205" />
<line x1="130" y1="195" x2="130" y2="205" />
<line x1="142" y1="195" x2="142" y2="205" />
<line x1="156" y1="195" x2="156" y2="205" />
</svg>
