<svg height="400" width="400" xmlns="http://www.w3.org/2000/svg">
<style>

 	 	 text { 
 	 	 	 fill: blue; 
 	 	 	 font-family: monospace; 
 	 	 	 }

 	 	 line { 
 	 	 	 stroke: black; 
 	 	 	 stroke-width: 1; 
 	 	 	 }

 	 	 circle { 
 	 	 	 r: 2.5; 
 	 	 	 fill: black; 
 	 	 	 }
</style>
<text x="205" y="10" >A</text> 
<text x="205" y="25" >C</text> 
<text x="205" y="40" >C</text> 
<text x="205" y="55" >A</text> 
<text x="205" y="70" >C</text> 
<text x="205" y="85" >A</text> 
<text x="205" y="100" >A</text> 
<text x="205" y="115" >T</text> 
<text x="205" y="130" >T</text> 
<text x="205" y="145" >C</text> 
<text x="205" y="160" >T</text> 
<text x="218" y="170" >T</text> 
<text x="231" y="170" >C</text> 
<text x="244" y="170" >T</text> 
<text x="257" y="170" >C</text> 
<text x="270" y="170" >C</text> 
<text x="282" y="163" >T</text> 
<text x="294" y="160" >T</text> 
<text x="306" y="168" >A</text> 
<text x="312" y="181.5" >A</text> 
<text x="306" y="195" >C</text> 
<text x="294" y="203" >T</text> 
<text x="282" y="200" >T</text> 
<text x="270" y="193" >G</text> 
<text x="257" y="193" >G</text> 
<text x="244" y="193" >A</text> 
<text x="231" y="193" >G</text> 
<text x="218" y="193" >A</text> 
<text x="220" y="205" >C</text> 
<text x="228" y="214" >T</text> 
<text x="230" y="225" >G</text> 
<text x="220" y="230" >A</text> 
<text x="210" y="228" >C</text> 
<text x="200" y="238" >A</text> 
<text x="200" y="253" >T</text> 
<text x="200" y="268" >T</text> 
<text x="200" y="283" >T</text> 
<text x="200" y="298" >C</text> 
<text x="208" y="308" >A</text> 
<text x="208" y="323" >A</text> 
<text x="200" y="334" >A</text> 
<text x="187.5" y="336" >A</text> 
<text x="175" y="334" >T</text> 
<text x="167" y="323" >T</text> 
<text x="167" y="308" >C</text> 
<text x="175" y="298" >A</text> 
<text x="175" y="283" >A</text> 
<text x="175" y="268" >A</text> 
<text x="175" y="253" >A</text> 
<text x="175" y="238" >T</text> 
<text x="163" y="228" >A</text> 
<text x="152" y="215" >C</text> 
<text x="139" y="215" >G</text> 
<text x="126" y="215" >C</text> 
<text x="113" y="215" >T</text> 
<text x="104" y="224" >A</text> 
<text x="92" y="230" >A</text> 
<text x="81" y="230" >T</text> 
<text x="69" y="222.5" >G</text> 
<text x="63" y="208.5" >G</text> 
<text x="63" y="196" >C</text> 
<text x="69" y="184.5" >C</text> 
<text x="81" y="177" >C</text> 
<text x="92" y="177" >G</text> 
<text x="104" y="183" >A</text> 
<text x="113" y="192" >G</text> 
<text x="126" y="192" >A</text> 
<text x="139" y="192" >C</text> 
<text x="152" y="192" >G</text> 
<text x="163" y="183" >G</text> 
<text x="173" y="173" >T</text> 
<text x="180" y="160" >A</text> 
<text x="180" y="145" >G</text> 
<text x="180" y="130" >A</text> 
<text x="180" y="115" >A</text> 
<text x="180" y="100" >T</text> 
<text x="180" y="85" >T</text> 
<text x="180" y="70" >G</text> 
<line x1="190" y1="67" x2="203" y2="67" />
<line x1="190" y1="82" x2="203" y2="82" />
<line x1="190" y1="97" x2="203" y2="97" />
<line x1="190" y1="112" x2="203" y2="112" />
<line x1="190" y1="127" x2="203" y2="127" />
<line x1="190" y1="142" x2="203" y2="142" />
<line x1="190" y1="157" x2="203" y2="157" />
<line x1="222" y1="173" x2="222" y2="183" />
<line x1="235" y1="173" x2="235" y2="183" />
<line x1="248" y1="173" x2="248" y2="183" />
<line x1="261" y1="173" x2="261" y2="183" />
<line x1="274" y1="173" x2="274" y2="183" />
<line x1="180" y1="223" x2="203" y2="223" stroke-dasharray="2" />
<line x1="185" y1="235" x2="198" y2="235" />
<line x1="185" y1="250" x2="198" y2="250" />
<line x1="185" y1="265" x2="198" y2="265" />
<line x1="185" y1="280" x2="198" y2="280" />
<circle cx="192" cy="295" r="2" />
<circle cx="118" cy="200" r="2" />
<circle cx="130" cy="200" r="2" />
<line x1="142" y1="195" x2="142" y2="205" />
<line x1="154" y1="195" x2="154" y2="205" />
</svg>
