<svg height="400" width="400" xmlns="http://www.w3.org/2000/svg">
<style>

 	 	 text { 
 	 	 	 fill: blue; 
 	 	 	 font-family: monospace; 
 	 	 	 }

 	 	 line { 
 	 	 	 stroke: black; 
 	 	 	 stroke-width: 1; 
 	 	 	 }

 	 	 circle { 
 	 	 	 r: 2.5; 
 	 	 	 fill: black; 
 	 	 	 }
</style>
<text x="205" y="10" >A</text> 
<text x="205" y="25" >C</text> 
<text x="205" y="40" >C</text> 
<text x="205" y="55" >G</text> 
<text x="205" y="70" >T</text> 
<text x="205" y="85" >T</text> 
<text x="205" y="100" >T</text> 
<text x="205" y="115" >T</text> 
<text x="205" y="130" >T</text> 
<text x="205" y="145" >T</text> 
<text x="205" y="160" >C</text> 
<text x="217" y="167" >C</text> 
<text x="230" y="167" >T</text> 
<text x="243" y="167" >T</text> 
<text x="256" y="167" >C</text> 
<text x="269" y="167" >C</text> 
<text x="279" y="160" >T</text> 
<text x="291" y="157" >T</text> 
<text x="303" y="165" >A</text> 
<text x="309" y="178.5" >G</text> 
<text x="303" y="192" >C</text> 
<text x="291" y="200" >T</text> 
<text x="279" y="197" >T</text> 
<text x="269" y="190" >G</text> 
<text x="256" y="190" >G</text> 
<text x="243" y="190" >G</text> 
<text x="230" y="190" >G</text> 
<text x="217" y="190" >G</text> 
<text x="218" y="201" >G</text> 
<text x="213" y="212" >T</text> 
<text x="204" y="211" >T</text> 
<text x="200" y="223" >T</text> 
<text x="200" y="238" >C</text> 
<text x="200" y="253" >G</text> 
<text x="200" y="268" >A</text> 
<text x="200" y="283" >C</text> 
<text x="200" y="298" >C</text> 
<text x="208" y="308" >A</text> 
<text x="208" y="323" >A</text> 
<text x="200" y="334" >A</text> 
<text x="187.5" y="336" >G</text> 
<text x="175" y="334" >T</text> 
<text x="167" y="323" >T</text> 
<text x="167" y="308" >C</text> 
<text x="175" y="298" >G</text> 
<text x="175" y="283" >G</text> 
<text x="175" y="268" >T</text> 
<text x="175" y="253" >T</text> 
<text x="175" y="238" >G</text> 
<text x="175" y="223" >G</text> 
<text x="170" y="211" >G</text> 
<text x="162" y="203" >G</text> 
<text x="149" y="203" >T</text> 
<text x="136" y="203" >A</text> 
<text x="123" y="203" >C</text> 
<text x="110" y="210" >C</text> 
<text x="97" y="205" >G</text> 
<text x="90" y="191.5" >G</text> 
<text x="97" y="178" >A</text> 
<text x="110" y="173" >G</text> 
<text x="123" y="180" >G</text> 
<text x="136" y="180" >T</text> 
<text x="149" y="180" >A</text> 
<text x="162" y="180" >C</text> 
<text x="173" y="173" >T</text> 
<text x="180" y="160" >G</text> 
<text x="180" y="145" >A</text> 
<text x="180" y="130" >A</text> 
<text x="180" y="115" >A</text> 
<text x="180" y="100" >A</text> 
<text x="180" y="85" >A</text> 
<text x="180" y="70" >G</text> 
<circle cx="196" cy="67" r="2" />
<line x1="190" y1="82" x2="203" y2="82" />
<line x1="190" y1="97" x2="203" y2="97" />
<line x1="190" y1="112" x2="203" y2="112" />
<line x1="190" y1="127" x2="203" y2="127" />
<line x1="190" y1="142" x2="203" y2="142" />
<line x1="190" y1="157" x2="203" y2="157" />
<line x1="221" y1="170" x2="221" y2="180" />
<circle cx="234" cy="174" r="2" />
<circle cx="247" cy="174" r="2" />
<line x1="260" y1="170" x2="260" y2="180" />
<line x1="273" y1="170" x2="273" y2="180" />
<line x1="180" y1="207" x2="203" y2="207" stroke-dasharray="2" />
<circle cx="192" cy="220" r="2" />
<line x1="185" y1="235" x2="198" y2="235" />
<circle cx="192" cy="250" r="2" />
<line x1="185" y1="265" x2="198" y2="265" />
<line x1="185" y1="280" x2="198" y2="280" />
<line x1="185" y1="295" x2="198" y2="295" />
<line x1="127" y1="183" x2="127" y2="193" />
<line x1="140" y1="183" x2="140" y2="193" />
<line x1="153" y1="183" x2="153" y2="193" />
<line x1="166" y1="183" x2="166" y2="193" />
</svg>
